<svg width="45mm" height="45mm" version="1.1" viewBox="0 0 45 45" xmlns="http://www.w3.org/2000/svg"><path fill="#E53935" d="M2,2H3V3H2zM3,2H4V3H3zM4,2H5V3H4zM5,2H6V3H5zM6,2H7V3H6zM7,2H8V3H7zM8,2H9V3H8zM10,2H11V3H10zM11,2H12V3H11zM12,2H13V3H12zM13,2H14V3H13zM16,2H17V3H16zM20,2H21V3H20zM22,2H23V3H22zM28,2H29V3H28zM29,2H30V3H29zM30,2H31V3H30zM31,2H32V3H31zM32,2H33V3H32zM33,2H34V3H33zM34,2H35V3H34zM36,2H37V3H36zM37,2H38V3H37zM38,2H39V3H38zM39,2H40V3H39zM40,2H41V3H40zM41,2H42V3H41zM42,2H43V3H42zM2,3H3V4H2zM8,3H9V4H8zM10,3H11V4H10zM11,3H12V4H11zM12,3H13V4H12zM14,3H15V4H14zM16,3H17V4H16zM17,3H18V4H17zM19,3H20V4H19zM24,3H25V4H24zM26,3H27V4H26zM29,3H30V4H29zM32,3H33V4H32zM34,3H35V4H34zM36,3H37V4H36zM42,3H43V4H42zM2,4H3V5H2zM4,4H5V5H4zM5,4H6V5H5zM6,4H7V5H6zM8,4H9V5H8zM10,4H11V5H10zM12,4H13V5H12zM14,4H15V5H14zM15,4H16V5H15zM17,4H18V5H17zM18,4H19V5H18zM19,4H20V5H19zM20,4H21V5H20zM22,4H23V5H22zM25,4H26V5H25zM29,4H30V5H29zM30,4H31V5H30zM33,4H34V5H33zM36,4H37V5H36zM38,4H39V5H38zM39,4H40V5H39zM40,4H41V5H40zM42,4H43V5H42zM2,5H3V6H2zM4,5H5V6H4zM5,5H6V6H5zM6,5H7V6H6zM8,5H9V6H8zM11,5H12V6H11zM15,5H16V6H15zM17,5H18V6H17zM18,5H19V6H18zM23,5H24V6H23zM24,5H25V6H24zM26,5H27V6H26zM27,5H28V6H27zM28,5H29V6H28zM31,5H32V6H31zM33,5H34V6H33zM34,5H35V6H34zM36,5H37V6H36zM38,5H39V6H38zM39,5H40V6H39zM40,5H41V6H40zM42,5H43V6H42zM2,6H3V7H2zM4,6H5V7H4zM5,6H6V7H5zM6,6H7V7H6zM8,6H9V7H8zM10,6H11V7H10zM11,6H12V7H11zM16,6H17V7H16zM18,6H19V7H18zM20,6H21V7H20zM25,6H26V7H25zM26,6H27V7H26zM28,6H29V7H28zM32,6H33V7H32zM33,6H34V7H33zM36,6H37V7H36zM38,6H39V7H38zM39,6H40V7H39zM40,6H41V7H40zM42,6H43V7H42zM2,7H3V8H2zM8,7H9V8H8zM13,7H14V8H13zM16,7H17V8H16zM18,7H19V8H18zM21,7H22V8H21zM24,7H25V8H24zM26,7H27V8H26zM27,7H28V8H27zM28,7H29V8H28zM36,7H37V8H36zM42,7H43V8H42zM2,8H3V9H2zM3,8H4V9H3zM4,8H5V9H4zM5,8H6V9H5zM6,8H7V9H6zM7,8H8V9H7zM8,8H9V9H8zM10,8H11V9H10zM12,8H13V9H12zM14,8H15V9H14zM16,8H17V9H16zM18,8H19V9H18zM20,8H21V9H20zM22,8H23V9H22zM24,8H25V9H24zM26,8H27V9H26zM28,8H29V9H28zM30,8H31V9H30zM32,8H33V9H32zM34,8H35V9H34zM36,8H37V9H36zM37,8H38V9H37zM38,8H39V9H38zM39,8H40V9H39zM40,8H41V9H40zM41,8H42V9H41zM42,8H43V9H42zM11,9H12V10H11zM12,9H13V10H12zM13,9H14V10H13zM17,9H18V10H17zM20,9H21V10H20zM24,9H25V10H24zM26,9H27V10H26zM27,9H28V10H27zM28,9H29V10H28zM30,9H31V10H30zM32,9H33V10H32zM34,9H35V10H34zM2,10H3V11H2zM5,10H6V11H5zM6,10H7V11H6zM7,10H8V11H7zM8,10H9V11H8zM9,10H10V11H9zM10,10H11V11H10zM11,10H12V11H11zM13,10H14V11H13zM14,10H15V11H14zM19,10H20V11H19zM26,10H27V11H26zM31,10H32V11H31zM33,10H34V11H33zM35,10H36V11H35zM38,10H39V11H38zM40,10H41V11H40zM41,10H42V11H41zM42,10H43V11H42zM2,11H3V12H2zM3,11H4V12H3zM4,11H5V12H4zM5,11H6V12H5zM6,11H7V12H6zM9,11H10V12H9zM10,11H11V12H10zM12,11H13V12H12zM13,11H14V12H13zM14,11H15V12H14zM16,11H17V12H16zM17,11H18V12H17zM18,11H19V12H18zM20,11H21V12H20zM21,11H22V12H21zM22,11H23V12H22zM23,11H24V12H23zM25,11H26V12H25zM29,11H30V12H29zM30,11H31V12H30zM33,11H34V12H33zM36,11H37V12H36zM37,11H38V12H37zM38,11H39V12H38zM41,11H42V12H41zM42,11H43V12H42zM2,12H3V13H2zM4,12H5V13H4zM7,12H8V13H7zM8,12H9V13H8zM9,12H10V13H9zM10,12H11V13H10zM11,12H12V13H11zM13,12H14V13H13zM14,12H15V13H14zM16,12H17V13H16zM17,12H18V13H17zM19,12H20V13H19zM22,12H23V13H22zM23,12H24V13H23zM24,12H25V13H24zM25,12H26V13H25zM27,12H28V13H27zM29,12H30V13H29zM35,12H36V13H35zM36,12H37V13H36zM37,12H38V13H37zM40,12H41V13H40zM42,12H43V13H42zM2,13H3V14H2zM3,13H4V14H3zM7,13H8V14H7zM9,13H10V14H9zM11,13H12V14H11zM12,13H13V14H12zM15,13H16V14H15zM16,13H17V14H16zM17,13H18V14H17zM19,13H20V14H19zM21,13H22V14H21zM23,13H24V14H23zM24,13H25V14H24zM27,13H28V14H27zM28,13H29V14H28zM33,13H34V14H33zM34,13H35V14H34zM37,13H38V14H37zM38,13H39V14H38zM39,13H40V14H39zM41,13H42V14H41zM42,13H43V14H42zM3,14H4V15H3zM4,14H5V15H4zM7,14H8V15H7zM8,14H9V15H8zM10,14H11V15H10zM11,14H12V15H11zM12,14H13V15H12zM14,14H15V15H14zM17,14H18V15H17zM19,14H20V15H19zM21,14H22V15H21zM23,14H24V15H23zM25,14H26V15H25zM26,14H27V15H26zM27,14H28V15H27zM28,14H29V15H28zM29,14H30V15H29zM30,14H31V15H30zM32,14H33V15H32zM34,14H35V15H34zM36,14H37V15H36zM37,14H38V15H37zM42,14H43V15H42zM2,15H3V16H2zM4,15H5V16H4zM6,15H7V16H6zM7,15H8V16H7zM9,15H10V16H9zM10,15H11V16H10zM12,15H13V16H12zM17,15H18V16H17zM19,15H20V16H19zM20,15H21V16H20zM21,15H22V16H21zM22,15H23V16H22zM23,15H24V16H23zM24,15H25V16H24zM26,15H27V16H26zM29,15H30V16H29zM30,15H31V16H30zM33,15H34V16H33zM34,15H35V16H34zM36,15H37V16H36zM37,15H38V16H37zM38,15H39V16H38zM41,15H42V16H41zM3,16H4V17H3zM4,16H5V17H4zM5,16H6V17H5zM7,16H8V17H7zM8,16H9V17H8zM10,16H11V17H10zM12,16H13V17H12zM17,16H18V17H17zM18,16H19V17H18zM21,16H22V17H21zM22,16H23V17H22zM24,16H25V17H24zM25,16H26V17H25zM26,16H27V17H26zM28,16H29V17H28zM30,16H31V17H30zM31,16H32V17H31zM32,16H33V17H32zM35,16H36V17H35zM36,16H37V17H36zM37,16H38V17H37zM39,16H40V17H39zM5,17H6V18H5zM12,17H13V18H12zM14,17H15V18H14zM16,17H17V18H16zM19,17H20V18H19zM22,17H23V18H22zM25,17H26V18H25zM27,17H28V18H27zM31,17H32V18H31zM33,17H34V18H33zM35,17H36V18H35zM38,17H39V18H38zM39,17H40V18H39zM40,17H41V18H40zM42,17H43V18H42zM4,18H5V19H4zM5,18H6V19H5zM6,18H7V19H6zM8,18H9V19H8zM9,18H10V19H9zM10,18H11V19H10zM11,18H12V19H11zM14,18H15V19H14zM16,18H17V19H16zM17,18H18V19H17zM19,18H20V19H19zM20,18H21V19H20zM22,18H23V19H22zM23,18H24V19H23zM24,18H25V19H24zM26,18H27V19H26zM27,18H28V19H27zM28,18H29V19H28zM30,18H31V19H30zM32,18H33V19H32zM33,18H34V19H33zM35,18H36V19H35zM3,19H4V20H3zM6,19H7V20H6zM9,19H10V20H9zM12,19H13V20H12zM13,19H14V20H13zM15,19H16V20H15zM16,19H17V20H16zM18,19H19V20H18zM19,19H20V20H19zM20,19H21V20H20zM23,19H24V20H23zM27,19H28V20H27zM28,19H29V20H28zM30,19H31V20H30zM32,19H33V20H32zM34,19H35V20H34zM35,19H36V20H35zM38,19H39V20H38zM39,19H40V20H39zM40,19H41V20H40zM2,20H3V21H2zM3,20H4V21H3zM4,20H5V21H4zM5,20H6V21H5zM6,20H7V21H6zM7,20H8V21H7zM8,20H9V21H8zM9,20H10V21H9zM13,20H14V21H13zM15,20H16V21H15zM17,20H18V21H17zM19,20H20V21H19zM20,20H21V21H20zM21,20H22V21H21zM23,20H24V21H23zM27,20H28V21H27zM30,20H31V21H30zM34,20H35V21H34zM37,20H38V21H37zM38,20H39V21H38zM39,20H40V21H39zM42,20H43V21H42zM3,21H4V22H3zM5,21H6V22H5zM6,21H7V22H6zM9,21H10V22H9zM13,21H14V22H13zM15,21H16V22H15zM16,21H17V22H16zM21,21H22V22H21zM23,21H24V22H23zM24,21H25V22H24zM27,21H28V22H27zM32,21H33V22H32zM34,21H35V22H34zM35,21H36V22H35zM36,21H37V22H36zM38,21H39V22H38zM40,21H41V22H40zM41,21H42V22H41zM42,21H43V22H42zM3,22H4V23H3zM8,22H9V23H8zM10,22H11V23H10zM12,22H13V23H12zM16,22H17V23H16zM17,22H18V23H17zM20,22H21V23H20zM21,22H22V23H21zM22,22H23V23H22zM23,22H24V23H23zM24,22H25V23H24zM25,22H26V23H25zM28,22H29V23H28zM29,22H30V23H29zM31,22H32V23H31zM36,22H37V23H36zM37,22H38V23H37zM2,23H3V24H2zM3,23H4V24H3zM5,23H6V24H5zM6,23H7V24H6zM9,23H10V24H9zM10,23H11V24H10zM12,23H13V24H12zM16,23H17V24H16zM19,23H20V24H19zM24,23H25V24H24zM26,23H27V24H26zM28,23H29V24H28zM32,23H33V24H32zM33,23H34V24H33zM34,23H35V24H34zM37,23H38V24H37zM39,23H40V24H39zM40,23H41V24H40zM2,24H3V25H2zM3,24H4V25H3zM4,24H5V25H4zM5,24H6V25H5zM6,24H7V25H6zM8,24H9V25H8zM10,24H11V25H10zM13,24H14V25H13zM15,24H16V25H15zM17,24H18V25H17zM18,24H19V25H18zM19,24H20V25H19zM20,24H21V25H20zM21,24H22V25H21zM22,24H23V25H22zM23,24H24V25H23zM24,24H25V25H24zM26,24H27V25H26zM27,24H28V25H27zM28,24H29V25H28zM31,24H32V25H31zM35,24H36V25H35zM37,24H38V25H37zM38,24H39V25H38zM39,24H40V25H39zM3,25H4V26H3zM4,25H5V26H4zM7,25H8V26H7zM11,25H12V26H11zM18,25H19V26H18zM19,25H20V26H19zM22,25H23V26H22zM24,25H25V26H24zM25,25H26V26H25zM26,25H27V26H26zM29,25H30V26H29zM30,25H31V26H30zM31,25H32V26H31zM33,25H34V26H33zM37,25H38V26H37zM38,25H39V26H38zM40,25H41V26H40zM2,26H3V27H2zM3,26H4V27H3zM4,26H5V27H4zM5,26H6V27H5zM6,26H7V27H6zM7,26H8V27H7zM8,26H9V27H8zM9,26H10V27H9zM12,26H13V27H12zM14,26H15V27H14zM15,26H16V27H15zM22,26H23V27H22zM26,26H27V27H26zM28,26H29V27H28zM33,26H34V27H33zM34,26H35V27H34zM35,26H36V27H35zM36,26H37V27H36zM37,26H38V27H37zM39,26H40V27H39zM40,26H41V27H40zM41,26H42V27H41zM42,26H43V27H42zM3,27H4V28H3zM5,27H6V28H5zM7,27H8V28H7zM9,27H10V28H9zM13,27H14V28H13zM17,27H18V28H17zM20,27H21V28H20zM25,27H26V28H25zM27,27H28V28H27zM29,27H30V28H29zM32,27H33V28H32zM34,27H35V28H34zM35,27H36V28H35zM36,27H37V28H36zM37,27H38V28H37zM40,27H41V28H40zM41,27H42V28H41zM4,28H5V29H4zM8,28H9V29H8zM11,28H12V29H11zM13,28H14V29H13zM14,28H15V29H14zM17,28H18V29H17zM18,28H19V29H18zM20,28H21V29H20zM21,28H22V29H21zM22,28H23V29H22zM26,28H27V29H26zM28,28H29V29H28zM29,28H30V29H29zM33,28H34V29H33zM34,28H35V29H34zM35,28H36V29H35zM37,28H38V29H37zM38,28H39V29H38zM39,28H40V29H39zM41,28H42V29H41zM3,29H4V30H3zM4,29H5V30H4zM7,29H8V30H7zM10,29H11V30H10zM15,29H16V30H15zM18,29H19V30H18zM23,29H24V30H23zM24,29H25V30H24zM25,29H26V30H25zM29,29H30V30H29zM33,29H34V30H33zM35,29H36V30H35zM37,29H38V30H37zM38,29H39V30H38zM39,29H40V30H39zM40,29H41V30H40zM41,29H42V30H41zM42,29H43V30H42zM5,30H6V31H5zM8,30H9V31H8zM11,30H12V31H11zM15,30H16V31H15zM16,30H17V31H16zM18,30H19V31H18zM22,30H23V31H22zM26,30H27V31H26zM31,30H32V31H31zM33,30H34V31H33zM34,30H35V31H34zM35,30H36V31H35zM36,30H37V31H36zM39,30H40V31H39zM41,30H42V31H41zM42,30H43V31H42zM2,31H3V32H2zM3,31H4V32H3zM5,31H6V32H5zM7,31H8V32H7zM15,31H16V32H15zM17,31H18V32H17zM18,31H19V32H18zM19,31H20V32H19zM20,31H21V32H20zM22,31H23V32H22zM23,31H24V32H23zM25,31H26V32H25zM26,31H27V32H26zM27,31H28V32H27zM29,31H30V32H29zM30,31H31V32H30zM36,31H37V32H36zM38,31H39V32H38zM39,31H40V32H39zM41,31H42V32H41zM2,32H3V33H2zM3,32H4V33H3zM7,32H8V33H7zM8,32H9V33H8zM9,32H10V33H9zM11,32H12V33H11zM14,32H15V33H14zM17,32H18V33H17zM19,32H20V33H19zM22,32H23V33H22zM24,32H25V33H24zM25,32H26V33H25zM31,32H32V33H31zM32,32H33V33H32zM34,32H35V33H34zM35,32H36V33H35zM40,32H41V33H40zM42,32H43V33H42zM2,33H3V34H2zM3,33H4V34H3zM9,33H10V34H9zM10,33H11V34H10zM11,33H12V34H11zM14,33H15V34H14zM17,33H18V34H17zM18,33H19V34H18zM23,33H24V34H23zM24,33H25V34H24zM28,33H29V34H28zM30,33H31V34H30zM32,33H33V34H32zM33,33H34V34H33zM36,33H37V34H36zM38,33H39V34H38zM40,33H41V34H40zM41,33H42V34H41zM42,33H43V34H42zM2,34H3V35H2zM3,34H4V35H3zM5,34H6V35H5zM6,34H7V35H6zM7,34H8V35H7zM8,34H9V35H8zM12,34H13V35H12zM15,34H16V35H15zM19,34H20V35H19zM23,34H24V35H23zM24,34H25V35H24zM25,34H26V35H25zM26,34H27V35H26zM32,34H33V35H32zM33,34H34V35H33zM34,34H35V35H34zM35,34H36V35H35zM36,34H37V35H36zM37,34H38V35H37zM38,34H39V35H38zM40,34H41V35H40zM41,34H42V35H41zM10,35H11V36H10zM14,35H15V36H14zM17,35H18V36H17zM19,35H20V36H19zM20,35H21V36H20zM21,35H22V36H21zM22,35H23V36H22zM24,35H25V36H24zM29,35H30V36H29zM31,35H32V36H31zM33,35H34V36H33zM34,35H35V36H34zM38,35H39V36H38zM39,35H40V36H39zM2,36H3V37H2zM3,36H4V37H3zM4,36H5V37H4zM5,36H6V37H5zM6,36H7V37H6zM7,36H8V37H7zM8,36H9V37H8zM10,36H11V37H10zM11,36H12V37H11zM12,36H13V37H12zM14,36H15V37H14zM16,36H17V37H16zM18,36H19V37H18zM21,36H22V37H21zM23,36H24V37H23zM25,36H26V37H25zM26,36H27V37H26zM29,36H30V37H29zM30,36H31V37H30zM31,36H32V37H31zM34,36H35V37H34zM36,36H37V37H36zM38,36H39V37H38zM39,36H40V37H39zM40,36H41V37H40zM41,36H42V37H41zM2,37H3V38H2zM8,37H9V38H8zM10,37H11V38H10zM11,37H12V38H11zM12,37H13V38H12zM16,37H17V38H16zM20,37H21V38H20zM22,37H23V38H22zM24,37H25V38H24zM25,37H26V38H25zM27,37H28V38H27zM28,37H29V38H28zM31,37H32V38H31zM32,37H33V38H32zM33,37H34V38H33zM34,37H35V38H34zM38,37H39V38H38zM41,37H42V38H41zM2,38H3V39H2zM4,38H5V39H4zM5,38H6V39H5zM6,38H7V39H6zM8,38H9V39H8zM10,38H11V39H10zM13,38H14V39H13zM15,38H16V39H15zM17,38H18V39H17zM18,38H19V39H18zM19,38H20V39H19zM23,38H24V39H23zM24,38H25V39H24zM27,38H28V39H27zM32,38H33V39H32zM33,38H34V39H33zM34,38H35V39H34zM35,38H36V39H35zM36,38H37V39H36zM37,38H38V39H37zM38,38H39V39H38zM2,39H3V40H2zM4,39H5V40H4zM5,39H6V40H5zM6,39H7V40H6zM8,39H9V40H8zM10,39H11V40H10zM11,39H12V40H11zM12,39H13V40H12zM13,39H14V40H13zM14,39H15V40H14zM16,39H17V40H16zM20,39H21V40H20zM21,39H22V40H21zM22,39H23V40H22zM23,39H24V40H23zM25,39H26V40H25zM27,39H28V40H27zM28,39H29V40H28zM30,39H31V40H30zM31,39H32V40H31zM32,39H33V40H32zM37,39H38V40H37zM40,39H41V40H40zM42,39H43V40H42zM2,40H3V41H2zM4,40H5V41H4zM5,40H6V41H5zM6,40H7V41H6zM8,40H9V41H8zM13,40H14V41H13zM14,40H15V41H14zM15,40H16V41H15zM16,40H17V41H16zM17,40H18V41H17zM18,40H19V41H18zM21,40H22V41H21zM23,40H24V41H23zM24,40H25V41H24zM29,40H30V41H29zM30,40H31V41H30zM31,40H32V41H31zM33,40H34V41H33zM35,40H36V41H35zM37,40H38V41H37zM38,40H39V41H38zM40,40H41V41H40zM41,40H42V41H41zM42,40H43V41H42zM2,41H3V42H2zM8,41H9V42H8zM14,41H15V42H14zM16,41H17V42H16zM17,41H18V42H17zM21,41H22V42H21zM24,41H25V42H24zM30,41H31V42H30zM32,41H33V42H32zM33,41H34V42H33zM35,41H36V42H35zM38,41H39V42H38zM42,41H43V42H42zM2,42H3V43H2zM3,42H4V43H3zM4,42H5V43H4zM5,42H6V43H5zM6,42H7V43H6zM7,42H8V43H7zM8,42H9V43H8zM10,42H11V43H10zM11,42H12V43H11zM13,42H14V43H13zM17,42H18V43H17zM19,42H20V43H19zM24,42H25V43H24zM26,42H27V43H26zM27,42H28V43H27zM28,42H29V43H28zM29,42H30V43H29zM33,42H34V43H33zM34,42H35V43H34zM35,42H36V43H35zM36,42H37V43H36zM38,42H39V43H38z" id="qr-path" fill="#000000" fill-opacity="1" fill-rule="nonzero" stroke="none" /></svg>