<svg width="45mm" height="45mm" version="1.1" viewBox="0 0 45 45" xmlns="http://www.w3.org/2000/svg"><path fill="#6D4C41" d="M2,2H3V3H2zM3,2H4V3H3zM4,2H5V3H4zM5,2H6V3H5zM6,2H7V3H6zM7,2H8V3H7zM8,2H9V3H8zM10,2H11V3H10zM15,2H16V3H15zM16,2H17V3H16zM17,2H18V3H17zM18,2H19V3H18zM20,2H21V3H20zM22,2H23V3H22zM23,2H24V3H23zM24,2H25V3H24zM25,2H26V3H25zM28,2H29V3H28zM32,2H33V3H32zM33,2H34V3H33zM34,2H35V3H34zM36,2H37V3H36zM37,2H38V3H37zM38,2H39V3H38zM39,2H40V3H39zM40,2H41V3H40zM41,2H42V3H41zM42,2H43V3H42zM2,3H3V4H2zM8,3H9V4H8zM12,3H13V4H12zM14,3H15V4H14zM15,3H16V4H15zM17,3H18V4H17zM20,3H21V4H20zM23,3H24V4H23zM24,3H25V4H24zM26,3H27V4H26zM27,3H28V4H27zM29,3H30V4H29zM32,3H33V4H32zM34,3H35V4H34zM36,3H37V4H36zM42,3H43V4H42zM2,4H3V5H2zM4,4H5V5H4zM5,4H6V5H5zM6,4H7V5H6zM8,4H9V5H8zM12,4H13V5H12zM13,4H14V5H13zM15,4H16V5H15zM17,4H18V5H17zM18,4H19V5H18zM19,4H20V5H19zM20,4H21V5H20zM21,4H22V5H21zM22,4H23V5H22zM24,4H25V5H24zM26,4H27V5H26zM28,4H29V5H28zM29,4H30V5H29zM30,4H31V5H30zM32,4H33V5H32zM36,4H37V5H36zM38,4H39V5H38zM39,4H40V5H39zM40,4H41V5H40zM42,4H43V5H42zM2,5H3V6H2zM4,5H5V6H4zM5,5H6V6H5zM6,5H7V6H6zM8,5H9V6H8zM10,5H11V6H10zM13,5H14V6H13zM14,5H15V6H14zM16,5H17V6H16zM18,5H19V6H18zM19,5H20V6H19zM22,5H23V6H22zM23,5H24V6H23zM24,5H25V6H24zM25,5H26V6H25zM27,5H28V6H27zM29,5H30V6H29zM31,5H32V6H31zM33,5H34V6H33zM36,5H37V6H36zM38,5H39V6H38zM39,5H40V6H39zM40,5H41V6H40zM42,5H43V6H42zM2,6H3V7H2zM4,6H5V7H4zM5,6H6V7H5zM6,6H7V7H6zM8,6H9V7H8zM10,6H11V7H10zM12,6H13V7H12zM13,6H14V7H13zM15,6H16V7H15zM17,6H18V7H17zM18,6H19V7H18zM19,6H20V7H19zM21,6H22V7H21zM23,6H24V7H23zM26,6H27V7H26zM27,6H28V7H27zM28,6H29V7H28zM29,6H30V7H29zM31,6H32V7H31zM32,6H33V7H32zM36,6H37V7H36zM38,6H39V7H38zM39,6H40V7H39zM40,6H41V7H40zM42,6H43V7H42zM2,7H3V8H2zM8,7H9V8H8zM10,7H11V8H10zM12,7H13V8H12zM15,7H16V8H15zM19,7H20V8H19zM22,7H23V8H22zM25,7H26V8H25zM26,7H27V8H26zM30,7H31V8H30zM31,7H32V8H31zM33,7H34V8H33zM34,7H35V8H34zM36,7H37V8H36zM42,7H43V8H42zM2,8H3V9H2zM3,8H4V9H3zM4,8H5V9H4zM5,8H6V9H5zM6,8H7V9H6zM7,8H8V9H7zM8,8H9V9H8zM10,8H11V9H10zM12,8H13V9H12zM14,8H15V9H14zM16,8H17V9H16zM18,8H19V9H18zM20,8H21V9H20zM22,8H23V9H22zM24,8H25V9H24zM26,8H27V9H26zM28,8H29V9H28zM30,8H31V9H30zM32,8H33V9H32zM34,8H35V9H34zM36,8H37V9H36zM37,8H38V9H37zM38,8H39V9H38zM39,8H40V9H39zM40,8H41V9H40zM41,8H42V9H41zM42,8H43V9H42zM10,9H11V10H10zM14,9H15V10H14zM15,9H16V10H15zM16,9H17V10H16zM18,9H19V10H18zM19,9H20V10H19zM21,9H22V10H21zM22,9H23V10H22zM23,9H24V10H23zM25,9H26V10H25zM29,9H30V10H29zM31,9H32V10H31zM33,9H34V10H33zM2,10H3V11H2zM6,10H7V11H6zM8,10H9V11H8zM9,10H10V11H9zM10,10H11V11H10zM12,10H13V11H12zM13,10H14V11H13zM14,10H15V11H14zM16,10H17V11H16zM17,10H18V11H17zM18,10H19V11H18zM19,10H20V11H19zM22,10H23V11H22zM23,10H24V11H23zM24,10H25V11H24zM26,10H27V11H26zM28,10H29V11H28zM29,10H30V11H29zM30,10H31V11H30zM31,10H32V11H31zM33,10H34V11H33zM34,10H35V11H34zM35,10H36V11H35zM36,10H37V11H36zM37,10H38V11H37zM38,10H39V11H38zM39,10H40V11H39zM42,10H43V11H42zM4,11H5V12H4zM5,11H6V12H5zM10,11H11V12H10zM13,11H14V12H13zM14,11H15V12H14zM15,11H16V12H15zM16,11H17V12H16zM17,11H18V12H17zM20,11H21V12H20zM22,11H23V12H22zM23,11H24V12H23zM24,11H25V12H24zM25,11H26V12H25zM27,11H28V12H27zM29,11H30V12H29zM37,11H38V12H37zM38,11H39V12H38zM39,11H40V12H39zM41,11H42V12H41zM2,12H3V13H2zM3,12H4V13H3zM6,12H7V13H6zM7,12H8V13H7zM8,12H9V13H8zM9,12H10V13H9zM11,12H12V13H11zM12,12H13V13H12zM13,12H14V13H13zM17,12H18V13H17zM18,12H19V13H18zM19,12H20V13H19zM20,12H21V13H20zM23,12H24V13H23zM25,12H26V13H25zM26,12H27V13H26zM27,12H28V13H27zM28,12H29V13H28zM29,12H30V13H29zM30,12H31V13H30zM32,12H33V13H32zM34,12H35V13H34zM35,12H36V13H35zM37,12H38V13H37zM38,12H39V13H38zM3,13H4V14H3zM5,13H6V14H5zM6,13H7V14H6zM9,13H10V14H9zM12,13H13V14H12zM14,13H15V14H14zM15,13H16V14H15zM16,13H17V14H16zM19,13H20V14H19zM20,13H21V14H20zM21,13H22V14H21zM24,13H25V14H24zM26,13H27V14H26zM27,13H28V14H27zM28,13H29V14H28zM29,13H30V14H29zM32,13H33V14H32zM33,13H34V14H33zM34,13H35V14H34zM35,13H36V14H35zM37,13H38V14H37zM39,13H40V14H39zM42,13H43V14H42zM2,14H3V15H2zM4,14H5V15H4zM5,14H6V15H5zM8,14H9V15H8zM10,14H11V15H10zM13,14H14V15H13zM14,14H15V15H14zM21,14H22V15H21zM22,14H23V15H22zM24,14H25V15H24zM26,14H27V15H26zM27,14H28V15H27zM28,14H29V15H28zM31,14H32V15H31zM32,14H33V15H32zM34,14H35V15H34zM35,14H36V15H35zM41,14H42V15H41zM2,15H3V16H2zM4,15H5V16H4zM6,15H7V16H6zM9,15H10V16H9zM10,15H11V16H10zM12,15H13V16H12zM13,15H14V16H13zM14,15H15V16H14zM17,15H18V16H17zM18,15H19V16H18zM19,15H20V16H19zM20,15H21V16H20zM21,15H22V16H21zM23,15H24V16H23zM24,15H25V16H24zM26,15H27V16H26zM30,15H31V16H30zM33,15H34V16H33zM34,15H35V16H34zM36,15H37V16H36zM37,15H38V16H37zM38,15H39V16H38zM41,15H42V16H41zM2,16H3V17H2zM4,16H5V17H4zM5,16H6V17H5zM8,16H9V17H8zM9,16H10V17H9zM10,16H11V17H10zM12,16H13V17H12zM15,16H16V17H15zM19,16H20V17H19zM20,16H21V17H20zM21,16H22V17H21zM24,16H25V17H24zM25,16H26V17H25zM26,16H27V17H26zM27,16H28V17H27zM28,16H29V17H28zM30,16H31V17H30zM33,16H34V17H33zM35,16H36V17H35zM36,16H37V17H36zM38,16H39V17H38zM2,17H3V18H2zM4,17H5V18H4zM7,17H8V18H7zM10,17H11V18H10zM11,17H12V18H11zM12,17H13V18H12zM13,17H14V18H13zM14,17H15V18H14zM20,17H21V18H20zM21,17H22V18H21zM22,17H23V18H22zM23,17H24V18H23zM25,17H26V18H25zM26,17H27V18H26zM27,17H28V18H27zM28,17H29V18H28zM29,17H30V18H29zM32,17H33V18H32zM33,17H34V18H33zM34,17H35V18H34zM37,17H38V18H37zM39,17H40V18H39zM41,17H42V18H41zM42,17H43V18H42zM3,18H4V19H3zM4,18H5V19H4zM6,18H7V19H6zM7,18H8V19H7zM8,18H9V19H8zM10,18H11V19H10zM14,18H15V19H14zM15,18H16V19H15zM16,18H17V19H16zM17,18H18V19H17zM20,18H21V19H20zM22,18H23V19H22zM24,18H25V19H24zM25,18H26V19H25zM26,18H27V19H26zM28,18H29V19H28zM29,18H30V19H29zM30,18H31V19H30zM31,18H32V19H31zM32,18H33V19H32zM37,18H38V19H37zM39,18H40V19H39zM41,18H42V19H41zM4,19H5V20H4zM7,19H8V20H7zM10,19H11V20H10zM19,19H20V20H19zM20,19H21V20H20zM21,19H22V20H21zM22,19H23V20H22zM23,19H24V20H23zM24,19H25V20H24zM25,19H26V20H25zM31,19H32V20H31zM32,19H33V20H32zM33,19H34V20H33zM35,19H36V20H35zM36,19H37V20H36zM37,19H38V20H37zM38,19H39V20H38zM42,19H43V20H42zM5,20H6V21H5zM6,20H7V21H6zM7,20H8V21H7zM8,20H9V21H8zM10,20H11V21H10zM13,20H14V21H13zM14,20H15V21H14zM16,20H17V21H16zM17,20H18V21H17zM20,20H21V21H20zM22,20H23V21H22zM23,20H24V21H23zM26,20H27V21H26zM28,20H29V21H28zM30,20H31V21H30zM32,20H33V21H32zM33,20H34V21H33zM37,20H38V21H37zM40,20H41V21H40zM42,20H43V21H42zM2,21H3V22H2zM4,21H5V22H4zM7,21H8V22H7zM10,21H11V22H10zM11,21H12V22H11zM14,21H15V22H14zM15,21H16V22H15zM16,21H17V22H16zM17,21H18V22H17zM18,21H19V22H18zM22,21H23V22H22zM25,21H26V22H25zM26,21H27V22H26zM27,21H28V22H27zM29,21H30V22H29zM30,21H31V22H30zM33,21H34V22H33zM37,21H38V22H37zM39,21H40V22H39zM3,22H4V23H3zM4,22H5V23H4zM5,22H6V23H5zM6,22H7V23H6zM8,22H9V23H8zM18,22H19V23H18zM21,22H22V23H21zM23,22H24V23H23zM25,22H26V23H25zM28,22H29V23H28zM30,22H31V23H30zM31,22H32V23H31zM32,22H33V23H32zM34,22H35V23H34zM35,22H36V23H35zM37,22H38V23H37zM40,22H41V23H40zM41,22H42V23H41zM42,22H43V23H42zM2,23H3V24H2zM4,23H5V24H4zM5,23H6V24H5zM9,23H10V24H9zM10,23H11V24H10zM12,23H13V24H12zM15,23H16V24H15zM18,23H19V24H18zM19,23H20V24H19zM20,23H21V24H20zM21,23H22V24H21zM26,23H27V24H26zM27,23H28V24H27zM28,23H29V24H28zM30,23H31V24H30zM32,23H33V24H32zM34,23H35V24H34zM36,23H37V24H36zM37,23H38V24H37zM40,23H41V24H40zM42,23H43V24H42zM3,24H4V25H3zM5,24H6V25H5zM8,24H9V25H8zM9,24H10V25H9zM12,24H13V25H12zM13,24H14V25H13zM14,24H15V25H14zM15,24H16V25H15zM16,24H17V25H16zM17,24H18V25H17zM19,24H20V25H19zM21,24H22V25H21zM23,24H24V25H23zM27,24H28V25H27zM30,24H31V25H30zM31,24H32V25H31zM32,24H33V25H32zM34,24H35V25H34zM35,24H36V25H35zM36,24H37V25H36zM37,24H38V25H37zM39,24H40V25H39zM40,24H41V25H40zM42,24H43V25H42zM2,25H3V26H2zM3,25H4V26H3zM4,25H5V26H4zM5,25H6V26H5zM7,25H8V26H7zM10,25H11V26H10zM14,25H15V26H14zM17,25H18V26H17zM18,25H19V26H18zM19,25H20V26H19zM20,25H21V26H20zM22,25H23V26H22zM23,25H24V26H23zM24,25H25V26H24zM25,25H26V26H25zM30,25H31V26H30zM31,25H32V26H31zM32,25H33V26H32zM33,25H34V26H33zM35,25H36V26H35zM37,25H38V26H37zM40,25H41V26H40zM41,25H42V26H41zM2,26H3V27H2zM3,26H4V27H3zM4,26H5V27H4zM8,26H9V27H8zM11,26H12V27H11zM13,26H14V27H13zM14,26H15V27H14zM15,26H16V27H15zM17,26H18V27H17zM18,26H19V27H18zM19,26H20V27H19zM22,26H23V27H22zM23,26H24V27H23zM24,26H25V27H24zM25,26H26V27H25zM26,26H27V27H26zM28,26H29V27H28zM29,26H30V27H29zM30,26H31V27H30zM31,26H32V27H31zM33,26H34V27H33zM34,26H35V27H34zM39,26H40V27H39zM40,26H41V27H40zM3,27H4V28H3zM5,27H6V28H5zM6,27H7V28H6zM7,27H8V28H7zM9,27H10V28H9zM13,27H14V28H13zM17,27H18V28H17zM20,27H21V28H20zM25,27H26V28H25zM27,27H28V28H27zM29,27H30V28H29zM32,27H33V28H32zM34,27H35V28H34zM35,27H36V28H35zM36,27H37V28H36zM37,27H38V28H37zM40,27H41V28H40zM41,27H42V28H41zM4,28H5V29H4zM6,28H7V29H6zM8,28H9V29H8zM9,28H10V29H9zM11,28H12V29H11zM15,28H16V29H15zM17,28H18V29H17zM18,28H19V29H18zM19,28H20V29H19zM22,28H23V29H22zM25,28H26V29H25zM27,28H28V29H27zM28,28H29V29H28zM29,28H30V29H29zM31,28H32V29H31zM32,28H33V29H32zM34,28H35V29H34zM35,28H36V29H35zM41,28H42V29H41zM5,29H6V30H5zM7,29H8V30H7zM11,29H12V30H11zM13,29H14V30H13zM14,29H15V30H14zM15,29H16V30H15zM16,29H17V30H16zM17,29H18V30H17zM18,29H19V30H18zM19,29H20V30H19zM20,29H21V30H20zM22,29H23V30H22zM24,29H25V30H24zM26,29H27V30H26zM28,29H29V30H28zM31,29H32V30H31zM32,29H33V30H32zM33,29H34V30H33zM34,29H35V30H34zM39,29H40V30H39zM42,29H43V30H42zM3,30H4V31H3zM6,30H7V31H6zM7,30H8V31H7zM8,30H9V31H8zM9,30H10V31H9zM13,30H14V31H13zM14,30H15V31H14zM16,30H17V31H16zM17,30H18V31H17zM19,30H20V31H19zM21,30H22V31H21zM22,30H23V31H22zM23,30H24V31H23zM25,30H26V31H25zM26,30H27V31H26zM27,30H28V31H27zM29,30H30V31H29zM34,30H35V31H34zM36,30H37V31H36zM37,30H38V31H37zM42,30H43V31H42zM2,31H3V32H2zM3,31H4V32H3zM4,31H5V32H4zM5,31H6V32H5zM6,31H7V32H6zM7,31H8V32H7zM9,31H10V32H9zM10,31H11V32H10zM12,31H13V32H12zM13,31H14V32H13zM14,31H15V32H14zM16,31H17V32H16zM17,31H18V32H17zM20,31H21V32H20zM21,31H22V32H21zM22,31H23V32H22zM23,31H24V32H23zM24,31H25V32H24zM28,31H29V32H28zM29,31H30V32H29zM31,31H32V32H31zM33,31H34V32H33zM34,31H35V32H34zM37,31H38V32H37zM38,31H39V32H38zM40,31H41V32H40zM41,31H42V32H41zM42,31H43V32H42zM4,32H5V33H4zM7,32H8V33H7zM8,32H9V33H8zM10,32H11V33H10zM11,32H12V33H11zM14,32H15V33H14zM15,32H16V33H15zM16,32H17V33H16zM17,32H18V33H17zM18,32H19V33H18zM19,32H20V33H19zM20,32H21V33H20zM24,32H25V33H24zM26,32H27V33H26zM27,32H28V33H27zM28,32H29V33H28zM29,32H30V33H29zM31,32H32V33H31zM33,32H34V33H33zM35,32H36V33H35zM38,32H39V33H38zM39,32H40V33H39zM42,32H43V33H42zM4,33H5V34H4zM5,33H6V34H5zM6,33H7V34H6zM7,33H8V34H7zM12,33H13V34H12zM13,33H14V34H13zM15,33H16V34H15zM16,33H17V34H16zM18,33H19V34H18zM19,33H20V34H19zM20,33H21V34H20zM25,33H26V34H25zM26,33H27V34H26zM27,33H28V34H27zM29,33H30V34H29zM31,33H32V34H31zM34,33H35V34H34zM35,33H36V34H35zM37,33H38V34H37zM39,33H40V34H39zM2,34H3V35H2zM3,34H4V35H3zM4,34H5V35H4zM7,34H8V35H7zM8,34H9V35H8zM10,34H11V35H10zM11,34H12V35H11zM13,34H14V35H13zM15,34H16V35H15zM16,34H17V35H16zM17,34H18V35H17zM18,34H19V35H18zM19,34H20V35H19zM21,34H22V35H21zM22,34H23V35H22zM26,34H27V35H26zM28,34H29V35H28zM29,34H30V35H29zM30,34H31V35H30zM32,34H33V35H32zM33,34H34V35H33zM34,34H35V35H34zM35,34H36V35H35zM36,34H37V35H36zM37,34H38V35H37zM38,34H39V35H38zM42,34H43V35H42zM10,35H11V36H10zM11,35H12V36H11zM12,35H13V36H12zM14,35H15V36H14zM15,35H16V36H15zM17,35H18V36H17zM18,35H19V36H18zM20,35H21V36H20zM22,35H23V36H22zM23,35H24V36H23zM29,35H30V36H29zM30,35H31V36H30zM31,35H32V36H31zM34,35H35V36H34zM38,35H39V36H38zM42,35H43V36H42zM2,36H3V37H2zM3,36H4V37H3zM4,36H5V37H4zM5,36H6V37H5zM6,36H7V37H6zM7,36H8V37H7zM8,36H9V37H8zM10,36H11V37H10zM11,36H12V37H11zM16,36H17V37H16zM19,36H20V37H19zM21,36H22V37H21zM22,36H23V37H22zM23,36H24V37H23zM25,36H26V37H25zM28,36H29V37H28zM29,36H30V37H29zM31,36H32V37H31zM32,36H33V37H32zM34,36H35V37H34zM36,36H37V37H36zM38,36H39V37H38zM39,36H40V37H39zM41,36H42V37H41zM42,36H43V37H42zM2,37H3V38H2zM8,37H9V38H8zM12,37H13V38H12zM14,37H15V38H14zM15,37H16V38H15zM16,37H17V38H16zM17,37H18V38H17zM19,37H20V38H19zM20,37H21V38H20zM22,37H23V38H22zM25,37H26V38H25zM26,37H27V38H26zM27,37H28V38H27zM29,37H30V38H29zM32,37H33V38H32zM33,37H34V38H33zM34,37H35V38H34zM38,37H39V38H38zM2,38H3V39H2zM4,38H5V39H4zM5,38H6V39H5zM6,38H7V39H6zM8,38H9V39H8zM10,38H11V39H10zM11,38H12V39H11zM12,38H13V39H12zM16,38H17V39H16zM20,38H21V39H20zM25,38H26V39H25zM27,38H28V39H27zM28,38H29V39H28zM29,38H30V39H29zM30,38H31V39H30zM33,38H34V39H33zM34,38H35V39H34zM35,38H36V39H35zM36,38H37V39H36zM37,38H38V39H37zM38,38H39V39H38zM41,38H42V39H41zM42,38H43V39H42zM2,39H3V40H2zM4,39H5V40H4zM5,39H6V40H5zM6,39H7V40H6zM8,39H9V40H8zM11,39H12V40H11zM13,39H14V40H13zM14,39H15V40H14zM21,39H22V40H21zM22,39H23V40H22zM23,39H24V40H23zM25,39H26V40H25zM27,39H28V40H27zM28,39H29V40H28zM30,39H31V40H30zM31,39H32V40H31zM32,39H33V40H32zM37,39H38V40H37zM40,39H41V40H40zM42,39H43V40H42zM2,40H3V41H2zM4,40H5V41H4zM5,40H6V41H5zM6,40H7V41H6zM8,40H9V41H8zM16,40H17V41H16zM17,40H18V41H17zM18,40H19V41H18zM19,40H20V41H19zM20,40H21V41H20zM23,40H24V41H23zM24,40H25V41H24zM25,40H26V41H25zM26,40H27V41H26zM27,40H28V41H27zM29,40H30V41H29zM30,40H31V41H30zM32,40H33V41H32zM35,40H36V41H35zM39,40H40V41H39zM40,40H41V41H40zM41,40H42V41H41zM42,40H43V41H42zM2,41H3V42H2zM8,41H9V42H8zM11,41H12V42H11zM13,41H14V42H13zM19,41H20V42H19zM20,41H21V42H20zM21,41H22V42H21zM22,41H23V42H22zM23,41H24V42H23zM24,41H25V42H24zM25,41H26V42H25zM26,41H27V42H26zM28,41H29V42H28zM29,41H30V42H29zM30,41H31V42H30zM31,41H32V42H31zM33,41H34V42H33zM34,41H35V42H34zM37,41H38V42H37zM40,41H41V42H40zM41,41H42V42H41zM42,41H43V42H42zM2,42H3V43H2zM3,42H4V43H3zM4,42H5V43H4zM5,42H6V43H5zM6,42H7V43H6zM7,42H8V43H7zM8,42H9V43H8zM10,42H11V43H10zM15,42H16V43H15zM21,42H22V43H21zM23,42H24V43H23zM24,42H25V43H24zM25,42H26V43H25zM26,42H27V43H26zM28,42H29V43H28zM31,42H32V43H31zM34,42H35V43H34zM36,42H37V43H36zM37,42H38V43H37zM38,42H39V43H38zM39,42H40V43H39zM41,42H42V43H41z" id="qr-path" fill="#000000" fill-opacity="1" fill-rule="nonzero" stroke="none" /></svg>